<svg width="150" height="90" viewBox="0 0 150 90" fill="none" xmlns="http://www.w3.org/2000/svg">
<path d="M32.7355 54.9411V35.7665H47.5433V39.011H36.102V43.2558H44.5183V46.476H36.102V51.6965H47.5677V54.9167L32.7355 54.9411Z" fill="black"/>
<path d="M52.7395 54.941L47.8604 41.0602H51.227L53.5201 48.1348L54.1788 50.5011C54.3495 49.8913 54.4715 49.5009 54.5203 49.3058C54.6179 48.9155 54.7399 48.5251 54.8618 48.1348L57.1794 41.0602H60.4727L55.6425 54.941H52.7395Z" fill="black"/>
<path d="M61.3997 47.7933C61.3997 46.5735 61.6681 45.4026 62.1804 44.256C62.7171 43.1094 63.4489 42.2556 64.4247 41.6457C65.3761 41.0358 66.4739 40.7431 67.6449 40.7431C69.4745 40.7431 70.987 41.4262 72.158 42.7923C73.3289 44.1584 73.9144 45.8905 73.9144 47.9641C73.9144 50.062 73.3289 51.7941 72.1336 53.1846C70.9382 54.5751 69.4501 55.2582 67.6693 55.2582C66.5471 55.2582 65.4981 54.9655 64.4979 54.4044C63.4977 53.8189 62.7171 52.9895 62.2048 51.8673C61.6681 50.7451 61.3997 49.4034 61.3997 47.7933ZM64.6931 47.9885C64.6931 49.3546 64.9858 50.428 65.5469 51.1598C66.108 51.8917 66.8155 52.2576 67.6693 52.2576C68.4987 52.2576 69.2062 51.8917 69.7673 51.1598C70.3283 50.428 70.6211 49.3546 70.6211 47.9641C70.6211 46.5979 70.3283 45.5489 69.7673 44.8171C69.2062 44.0852 68.4987 43.7193 67.6693 43.7193C66.8398 43.7193 66.1324 44.0852 65.5469 44.8171C64.9614 45.5733 64.6931 46.6223 64.6931 47.9885Z" fill="black"/>
<path d="M75.5977 54.9411V35.7665H78.8178V54.9167H75.5977V54.9411Z" fill="black"/>
<path d="M90.0884 52.8675C89.6493 53.5993 89.0638 54.1848 88.3563 54.6239C87.6489 55.0386 86.8682 55.2582 86.0876 55.2582C85.2825 55.2582 84.5507 55.063 83.892 54.6483C83.2334 54.2336 82.7698 53.6725 82.4771 52.9163C82.1844 52.1844 82.038 51.1598 82.038 49.8425V41.0602H85.2582V47.4274C85.2582 49.379 85.3069 50.5743 85.4289 51.0134C85.5509 51.4525 85.7704 51.7941 86.0632 52.0624C86.3803 52.3308 86.7706 52.4527 87.2585 52.4527C87.7952 52.4527 88.3075 52.282 88.7223 51.9404C89.1614 51.5989 89.4541 51.1598 89.6249 50.6719C89.7956 50.1596 89.8688 48.9155 89.8688 46.9394V41.0846H93.089V54.9654H90.0884V52.8675Z" fill="black"/>
<path d="M101.944 41.0602V43.9876H99.7489V49.5741C99.7489 50.6963 99.7732 51.355 99.822 51.5501C99.8708 51.7453 99.9684 51.8917 100.115 52.0136C100.261 52.1356 100.432 52.1844 100.651 52.1844C100.944 52.1844 101.383 52.0624 101.944 51.8429L102.213 54.6971C101.457 55.063 100.627 55.2582 99.6757 55.2582C99.0902 55.2582 98.5779 55.1362 98.1144 54.9167C97.6509 54.6971 97.3093 54.4044 97.0898 54.0628C96.8702 53.7213 96.7239 53.2334 96.6507 52.6235C96.5775 52.2088 96.5531 51.3306 96.5531 50.0376V43.9876H95.0894V41.0602H96.5531V38.3036L99.7733 36.1568V41.0602H101.944Z" fill="black"/>
<path d="M104.164 39.1818V35.7665H107.385V39.1574H104.164V39.1818ZM104.164 54.9411V41.0602H107.385V54.9411H104.164Z" fill="black"/>
<path d="M109.922 47.7933C109.922 46.5735 110.19 45.4026 110.702 44.256C111.239 43.1094 111.971 42.2556 112.947 41.6457C113.898 41.0358 114.996 40.7431 116.167 40.7431C117.996 40.7431 119.509 41.4262 120.68 42.7923C121.851 44.1584 122.436 45.8905 122.436 47.9641C122.436 50.062 121.851 51.7941 120.655 53.1846C119.46 54.5751 117.972 55.2582 116.191 55.2582C115.069 55.2582 114.02 54.9655 113.02 54.4044C112.02 53.8189 111.239 52.9895 110.727 51.8673C110.19 50.7451 109.922 49.4034 109.922 47.7933ZM113.215 47.9885C113.215 49.3546 113.508 50.428 114.069 51.1598C114.63 51.8917 115.337 52.2576 116.191 52.2576C117.021 52.2576 117.728 51.8917 118.289 51.1598C118.85 50.428 119.143 49.3546 119.143 47.9641C119.143 46.5979 118.85 45.5489 118.289 44.8171C117.728 44.0852 117.021 43.7193 116.191 43.7193C115.362 43.7193 114.654 44.0852 114.069 44.8171C113.508 45.5733 113.215 46.6223 113.215 47.9885Z" fill="black"/>
<path d="M132.78 54.9411V47.8665C132.78 46.3784 132.707 45.4026 132.585 44.9635C132.438 44.5243 132.219 44.1828 131.926 43.9389C131.609 43.6949 131.243 43.5729 130.804 43.5729C130.243 43.5729 129.755 43.7437 129.316 44.0852C128.877 44.4268 128.56 44.8903 128.413 45.4758C128.242 46.0612 128.169 47.1102 128.169 48.6715V54.9655H124.949V41.0602H127.901V43.1094C128.95 41.5481 130.292 40.7675 131.902 40.7675C132.609 40.7675 133.268 40.9139 133.853 41.2066C134.439 41.4993 134.878 41.8653 135.195 42.3288C135.488 42.7923 135.707 43.3046 135.829 43.8657C135.951 44.4512 136 45.2562 136 46.3296V54.9411H132.78Z" fill="black"/>
<path d="M30.3203 44.6463H24.2216C18.5863 44.6463 14 40.0844 14 34.4248V33.1074H20.0988C25.7584 33.1074 30.3203 37.6937 30.3203 43.329V44.6463Z" fill="black"/>
<path d="M30.3203 45.3538H24.2216C18.5863 45.3538 14 49.94 14 55.5753V56.8927H20.0988C25.7584 56.8927 30.3203 52.3308 30.3203 46.6711V45.3538Z" fill="black"/>
</svg>
