<svg width="150" height="90" viewBox="0 0 150 90" fill="none" xmlns="http://www.w3.org/2000/svg">
<path d="M29.0975 30.0068C20.8015 30.0068 14.0305 36.7778 14.0305 45.1348C14.0305 46.5988 14.2745 48.1238 14.7015 49.5268C15.0065 49.1608 15.2505 48.7338 15.4945 48.3068C16.5315 46.7818 17.5685 45.1958 18.6055 43.6098L19.3375 42.3898C19.5815 42.0238 19.8255 41.5968 20.0695 41.1698C20.5575 40.3768 21.0455 39.5838 21.4725 38.7908C21.7165 38.3638 21.8995 37.9978 22.1435 37.5708C22.3875 37.1438 22.5705 36.7778 22.8145 36.3508C23.0585 35.9238 23.2415 35.4968 23.4245 35.1308L24.0345 33.9108L24.0955 33.8498C24.4005 33.1788 25.2545 32.9348 25.9255 33.2398C26.4135 33.5448 26.7185 34.0328 26.7185 34.6428C26.7185 35.3748 26.5965 36.1068 26.5355 36.8388C26.4745 37.5708 26.4745 38.3028 26.4135 39.0348C26.3525 40.4988 26.3525 42.0238 26.3525 43.4878C26.3525 44.9518 26.4135 46.4158 26.5965 47.8188C26.6575 48.4898 26.7795 49.2218 26.9015 49.8928C27.0235 50.5028 27.2065 51.1128 27.5115 51.6618C27.5725 51.8448 27.6945 51.9668 27.8165 52.1498C27.8775 52.2108 27.8165 52.1498 27.8775 52.1498H28.0605C28.0605 52.1498 28.1215 52.0888 28.1825 52.0888C28.4265 51.9058 28.6095 51.7228 28.7925 51.4788C29.2195 50.9298 29.6465 50.4418 30.0125 49.8318C30.3785 49.2218 30.7445 48.6118 31.1105 48.0018C31.8425 46.7208 32.5135 45.4398 33.1235 44.0978C33.4285 43.4268 33.7335 42.7558 34.0385 42.0848C34.3435 41.4138 34.6485 40.7428 34.9535 40.0718C35.2585 39.4008 36.0515 39.0348 36.7225 39.3398C37.1495 39.5228 37.4545 39.8888 37.5765 40.3768C37.5765 40.5598 37.5765 40.7428 37.6375 40.9868L37.6985 41.5968C37.7595 42.0238 37.8205 42.4508 37.8815 42.8168C38.0035 43.6708 38.1865 44.4638 38.4305 45.2568C38.6745 46.0498 38.9185 46.8428 39.2845 47.6358C39.5895 48.4288 40.0165 49.0998 40.5655 49.7708C40.6875 49.9538 40.6265 50.1368 40.5045 50.2588C40.3825 50.3808 40.1995 50.3808 40.0775 50.2588C39.4065 49.6488 38.7965 48.9778 38.2475 48.1848C37.6985 47.3918 37.2715 46.6598 36.8445 45.8058C36.5395 45.2568 36.3565 44.7078 36.1125 44.1588C35.9295 44.4638 35.8075 44.8298 35.6245 45.1348C34.9535 46.4768 34.2825 47.8188 33.5505 49.2218C33.1845 49.9538 32.7575 50.6248 32.3305 51.2958C31.9035 51.9668 31.4155 52.6378 30.8665 53.2478C30.5615 53.6138 30.1955 53.9188 29.8295 54.2238C29.7075 54.2848 29.5855 54.4068 29.4635 54.4678L29.0975 54.6508H28.8535C28.7925 54.6508 28.7315 54.7118 28.6095 54.7118C28.4265 54.7118 28.3045 54.7728 28.1215 54.7728C27.7555 54.7728 27.3895 54.7728 27.0235 54.6508C26.7185 54.5288 26.4135 54.3458 26.1085 54.1018C25.6205 53.7968 25.3155 53.3088 25.0105 52.8208C24.6445 52.0278 24.3395 51.2348 24.1565 50.3808C23.9735 49.5878 23.8515 48.7948 23.7905 48.0018C23.6075 46.4768 23.5465 44.9518 23.5465 43.3658C23.5465 42.6338 23.5465 41.9018 23.5465 41.1698C23.2415 41.7188 22.9975 42.2068 22.6925 42.6948C22.4485 43.1218 22.2655 43.5488 22.0215 43.9148L21.3505 45.1348C20.4355 46.7818 19.4595 48.4288 18.4225 50.0758C17.8125 51.1128 17.1415 52.1498 16.4705 53.1868C21.0455 60.1408 30.3785 62.0928 37.3325 57.5178C44.2865 52.9428 46.2385 43.6098 41.6635 36.6558C38.9185 32.5688 34.2215 30.0068 29.0975 30.0068Z" fill="black"/>
<path d="M57.2185 50.5638V40.4988H56.9745L53.7415 50.5638H52.9485L49.7155 40.4988H49.4715V50.5028H48.1905V39.4618H50.5695L53.4365 48.2458L56.2425 39.4618H58.5605V50.5638H57.2185Z" fill="black"/>
<path d="M60.5125 40.9258V39.4618H61.9765V40.9258H60.5125ZM60.5125 50.5638V42.0238H61.9155V50.5638H60.5125Z" fill="black"/>
<path d="M70.5165 47.7578C70.5165 49.4048 69.9065 50.6858 67.1005 50.6858C63.6235 50.6858 63.4405 48.6728 63.4405 46.2328C63.4405 43.7928 63.6235 41.7798 67.1005 41.7798C69.8455 41.7798 70.5165 43.0608 70.5165 44.7078H69.1745C69.1745 43.3658 68.6865 42.6948 67.1005 42.6948C64.9655 42.6948 64.8435 43.8538 64.8435 46.1718C64.8435 48.4898 64.9655 49.6488 67.1005 49.6488C68.6865 49.6488 69.1745 48.9778 69.1745 47.6358L70.5165 47.7578Z" fill="black"/>
<path d="M73.2615 42.8778C73.9325 42.4508 74.7865 41.9018 75.5795 41.9018H76.7385L76.6165 42.9388C76.3725 42.9388 76.1895 42.9388 76.0065 42.9388C75.8235 42.9388 75.7015 42.9388 75.4575 42.9388C74.7255 42.9388 73.9325 43.5488 73.3225 43.8538V50.5638H71.9195V41.9628H73.0175L73.2615 42.8778Z" fill="black"/>
<path d="M84.6075 46.2938C84.6075 48.7338 84.4245 50.7468 80.8865 50.7468C77.3485 50.7468 77.1655 48.7338 77.1655 46.2938C77.1655 43.8538 77.3485 41.8408 80.8865 41.8408C84.4245 41.8408 84.6075 43.8538 84.6075 46.2938ZM78.5685 46.2938C78.5685 48.6118 78.6905 49.7708 80.8865 49.7708C83.0825 49.7708 83.2045 48.6118 83.2045 46.2938C83.2045 43.9758 83.0825 42.8168 80.8865 42.8168C78.6905 42.8168 78.5685 43.9148 78.5685 46.2938Z" fill="black"/>
<path d="M87.2305 52.5158C87.7795 52.5768 88.4505 52.5768 89.2435 52.5768C91.3785 52.5768 91.6835 51.9668 91.6835 49.7098C91.0735 50.0758 90.1585 50.5028 89.2435 50.5028C86.1325 50.5638 85.9495 48.8558 85.9495 46.2328C85.9495 43.6098 86.1325 41.7798 89.1215 41.7798C90.1585 41.7798 91.0735 42.2678 91.8055 42.6948L91.9275 41.9018H93.0255V49.4658C93.0255 52.5158 92.3545 53.4918 89.4875 53.4918C88.6335 53.4918 87.8405 53.4308 87.0475 53.3088L87.2305 52.5158ZM91.6835 43.5488C91.0735 43.1828 90.2805 42.7558 89.5485 42.7558C87.4745 42.7558 87.3525 43.9148 87.3525 46.2328C87.3525 48.4898 87.4745 49.5878 89.5485 49.5878C90.2805 49.5878 91.0735 49.1608 91.6835 48.8558V43.5488Z" fill="black"/>
<path d="M100.712 50.5638L100.59 49.7708C99.9185 50.1978 99.0035 50.6858 97.9665 50.6858C94.8555 50.7468 94.6725 48.9778 94.6725 46.2328C94.6725 43.4878 94.8555 41.7798 97.9665 41.7798C99.0035 41.7798 99.9185 42.2678 100.59 42.6948L100.712 41.9628H101.81V50.5028L100.712 50.5638ZM100.407 43.4878C99.7965 43.1828 99.0035 42.7558 98.2715 42.7558C96.1975 42.7558 96.0755 43.9148 96.0755 46.2328C96.0755 48.5508 96.1975 49.7098 98.2715 49.7098C99.0035 49.7098 99.7965 49.2828 100.407 48.9168V43.4878Z" fill="black"/>
<path d="M104.799 42.7558C105.409 42.3898 106.263 41.9018 107.178 41.8408C108.642 41.7798 109.374 42.1458 109.74 42.7558C110.411 42.3288 111.265 41.8408 112.241 41.8408C115.169 41.7798 115.352 43.2438 115.352 45.3178V50.5028H113.949V45.3788C113.949 43.6098 113.827 42.7558 111.936 42.7558C111.265 42.7558 110.533 43.1828 109.923 43.5488C110.045 44.1588 110.106 44.7688 110.106 45.4398V50.5638H108.886V45.4398C108.886 43.6708 108.764 42.8168 106.873 42.8168C106.202 42.8168 105.47 43.2438 104.921 43.5488V50.5638H103.518V42.0238H104.616L104.799 42.7558Z" fill="black"/>
<path d="M117.121 40.9258V39.4618H118.585V40.9258H117.121ZM117.121 50.5638V42.0238H118.524V50.5638H117.121Z" fill="black"/>
<path d="M121.513 42.7558C122.184 42.3898 123.099 41.9018 124.136 41.8408C127.247 41.7798 127.43 43.2438 127.43 45.3178V50.5028H126.027V45.3788C126.027 43.6098 125.905 42.7558 123.831 42.7558C123.099 42.7558 122.306 43.1828 121.696 43.4878V50.5028H120.293V41.9628H121.391L121.513 42.7558Z" fill="black"/>
<path d="M130.175 52.5158C130.724 52.5768 131.395 52.5768 132.188 52.5768C134.323 52.5768 134.628 51.9668 134.628 49.7098C134.018 50.0758 133.103 50.5028 132.188 50.5028C129.077 50.5638 128.894 48.8558 128.894 46.2328C128.894 43.6098 129.077 41.7798 132.066 41.7798C133.103 41.7798 134.018 42.2678 134.75 42.6948L134.872 41.9018H135.97V49.4658C135.97 52.5158 135.299 53.4918 132.432 53.4918C131.578 53.4918 130.785 53.4308 129.992 53.3088L130.175 52.5158ZM134.628 43.5488C134.018 43.1828 133.225 42.7558 132.493 42.7558C130.419 42.7558 130.297 43.9148 130.297 46.2328C130.297 48.4898 130.419 49.5878 132.493 49.5878C133.225 49.5878 134.018 49.1608 134.628 48.8558V43.5488Z" fill="black"/>
</svg>
